<svg width="22" height="24" viewBox="0 0 22 24" fill="none" xmlns="http://www.w3.org/2000/svg">
<path d="M21.9898 18.9411C22.0356 19.3314 21.9271 19.6717 21.6645 19.9584L18.5676 23.3138C18.427 23.4839 18.2457 23.6264 18.0204 23.7447C17.7951 23.8631 17.5731 23.9408 17.3562 23.9741C17.3393 23.9741 17.2937 23.9778 17.2157 23.9889C17.1395 23.9945 17.0378 24 16.9124 24C16.6177 24 16.1399 23.9464 15.4808 23.8354C14.8201 23.7244 14.0137 23.4525 13.0582 23.0215C12.1027 22.5905 11.0202 21.9413 9.80889 21.0756C8.59757 20.2118 7.30831 19.0261 5.94452 17.5168C4.85688 16.3477 3.95723 15.2287 3.2423 14.1614C2.52907 13.0941 1.95305 12.1082 1.51765 11.1982C1.08395 10.2918 0.758731 9.46868 0.540186 8.7325C0.323334 7.99631 0.175967 7.36 0.0980358 6.82543C0.020105 6.29272 -0.010441 5.87283 0.0031122 5.56578C0.0200537 5.26243 0.0285493 5.09228 0.0285493 5.05899C0.0607381 4.82222 0.130174 4.57991 0.236906 4.3339C0.345331 4.08604 0.479184 3.88813 0.633351 3.73645L3.73026 0.355175C3.94711 0.118412 4.1945 0 4.47404 0C4.67564 0 4.85518 0.0628974 5.00935 0.192377C5.16352 0.318157 5.29561 0.475379 5.40404 0.662199L7.89615 5.82291C8.03507 6.09296 8.07402 6.39259 8.01134 6.71259C7.95035 7.03629 7.81825 7.30455 7.61665 7.52466L6.47643 8.77133C6.44424 8.80648 6.41722 8.86201 6.3935 8.93599C6.36978 9.01368 6.35793 9.07652 6.35793 9.12831C6.42061 9.48346 6.55944 9.89042 6.7763 10.351C6.96265 10.7542 7.25067 11.2518 7.64033 11.8363C8.02829 12.4208 8.57891 13.096 9.29384 13.858C9.99183 14.6386 10.6119 15.2435 11.1557 15.6744C11.6995 16.1054 12.1552 16.4254 12.5195 16.6307C12.8854 16.8324 13.1633 16.9563 13.3581 16.997L13.6478 17.0617C13.68 17.0617 13.7308 17.0469 13.802 17.0229C13.8698 16.997 13.9206 16.9693 13.9511 16.936L15.2793 15.4599C15.5588 15.1898 15.8841 15.0529 16.2568 15.0529C16.5211 15.0529 16.7295 15.1029 16.8854 15.2046H16.909L21.4019 18.1031C21.7322 18.3233 21.9271 18.6007 21.9898 18.9411Z" fill="#FEFAE0"/>
</svg>
